<?xml version="1.0" encoding="utf-8"?>
<svg viewBox="0 0 16 16" xmlns="http://www.w3.org/2000/svg">
  <path fill="#D32" d="M 2.367 1.598 C 2.471 0.767 3.213 0.107 4.148 0.012 L 4.148 0 L 14.015 0 L 14.015 0 C 15.115 0.019 16 0.817 16 1.799 C 16 2.78 15.115 3.578 14.015 3.598 L 14.015 3.598 L 13.994 3.598 C 13.988 3.598 13.981 3.598 13.974 3.598 C 13.968 3.598 13.961 3.598 13.954 3.598 L 6.099 3.598 L 4.028 14.498 L 4.024 14.497 C 3.865 15.35 3.031 16 2.026 16 C 0.907 16 0 15.195 0 14.201 C 0 14.079 0.014 13.96 0.04 13.846 L 0.038 13.845 L 2.365 1.597 Z M 12.07 5.361 L 11.227 7.969 L 13.49 9.508 L 10.636 9.673 L 9.682 12.251 L 8.762 9.745 L 5.91 9.8 L 8.195 8.086 L 7.386 5.542 L 9.718 6.989 Z"/>
</svg>